<svg width="35" height="31" viewBox="0 0 35 31" fill="none" xmlns="http://www.w3.org/2000/svg">
<path d="M21 1.49998C21 1.29356 20.9453 1.09082 20.8414 0.912463C20.7375 0.734102 20.5881 0.586502 20.4086 0.484729C20.229 0.382955 20.0256 0.330651 19.8192 0.333155C19.6128 0.335658 19.4107 0.39288 19.2337 0.49898L7.84467 7.32865H3.5C1.56567 7.32865 0 8.89198 0 10.8286V20.1666C0 22.101 1.56333 23.6666 3.5 23.6666H7.84467L19.2313 30.501C19.4085 30.6077 19.6107 30.6654 19.8175 30.6682C20.0242 30.671 20.228 30.6188 20.408 30.517C20.5879 30.4151 20.7376 30.2673 20.8416 30.0886C20.9456 29.9099 21.0003 29.7067 21 29.5V1.49998ZM30.8163 15.4906L34.1157 18.7876L32.466 20.4373L29.1667 17.1403L25.8673 20.4373L24.2177 18.7876L27.517 15.4906L24.2177 12.1936L25.8673 10.544L29.1667 13.841L32.4683 10.544L34.1157 12.1936L30.8163 15.4906V15.4906Z" fill="white"/>
</svg>
