<svg width="107" height="107" viewBox="0 0 107 107" fill="none" xmlns="http://www.w3.org/2000/svg">
<path d="M93.2175 77.0943L81.692 70.4382C81.5026 70.3298 81.2938 70.2597 81.0773 70.232C80.8609 70.2043 80.6411 70.2195 80.4305 70.2768C80.22 70.334 80.0228 70.4322 79.8502 70.5657C79.6775 70.6991 79.5329 70.8653 79.4245 71.0547L77.3451 74.6597C76.8854 75.4538 77.157 76.4778 77.9512 76.9376L89.4767 83.5938C89.666 83.7022 89.8749 83.7722 90.0913 83.7999C90.3078 83.8276 90.5275 83.8124 90.7381 83.7552C90.9487 83.6979 91.1459 83.5997 91.3185 83.4663C91.4911 83.3328 91.6357 83.1666 91.7441 82.9772L93.8235 79.3723C94.2833 78.5781 94.0012 77.5541 93.2175 77.0943ZM79.4141 35.9453C79.5225 36.1347 79.6671 36.3009 79.8397 36.4343C80.0123 36.5678 80.2095 36.666 80.4201 36.7232C80.6307 36.7805 80.8504 36.7957 81.0669 36.768C81.2833 36.7403 81.4922 36.6702 81.6815 36.5618L93.207 29.9057C94.0012 29.4459 94.2729 28.4219 93.8131 27.6277L91.7441 24.0332C91.6357 23.8438 91.4911 23.6777 91.3185 23.5442C91.1459 23.4107 90.9487 23.3125 90.7381 23.2553C90.5275 23.198 90.3078 23.1828 90.0913 23.2105C89.8749 23.2382 89.666 23.3083 89.4767 23.4167L77.9512 30.0729C77.5696 30.2953 77.2916 30.6599 77.178 31.0867C77.0644 31.5136 77.1245 31.9681 77.3451 32.3508L79.4141 35.9453ZM97.5957 49.7383H84.2207C83.3012 49.7383 82.5488 50.4906 82.5488 51.4102V55.5898C82.5488 56.5094 83.3012 57.2617 84.2207 57.2617H97.5957C98.5152 57.2617 99.2676 56.5094 99.2676 55.5898V51.4102C99.2676 50.4906 98.5152 49.7383 97.5957 49.7383ZM65.4017 12.0166C64.7852 12.0166 64.1582 12.1838 63.5835 12.5704L26.541 36.7812H9.4043C8.48477 36.7812 7.73242 37.5336 7.73242 38.4531V68.5469C7.73242 69.4664 8.48477 70.2188 9.4043 70.2188H26.541L63.5835 94.4296C64.1582 94.8058 64.7956 94.9834 65.4017 94.9834C67.1467 94.9834 68.7559 93.5937 68.7559 91.6292V15.3708C68.7559 13.4063 67.1467 12.0166 65.4017 12.0166Z" fill="white"/>
</svg>
